<svg width="63" height="53" viewBox="0 0 63 53" fill="none" xmlns="http://www.w3.org/2000/svg">
<path d="M16.5184 37.0302C16.4837 37.0916 16.4547 37.1618 16.3852 37.2845C15.6108 35.9826 15.3861 34.5426 15.112 33.123C15.0624 33.1052 15.0042 33.0932 14.9605 33.0842C14.7928 33.5141 14.5697 33.9174 14.469 34.3536C14.1204 35.7819 14.2258 37.2124 14.5669 38.6383C14.9843 40.3312 15.4017 42.024 15.758 43.7195C16.023 44.9926 16.1776 46.2886 15.8985 47.5942C15.5936 49.0315 14.9563 50.1947 13.5085 50.7415C12.863 50.9816 12.2284 50.8965 11.6427 50.5625C11.0715 50.2315 10.9973 49.6451 11.4909 49.2138C11.7842 48.9544 12.1182 48.6806 12.4787 48.5416C13.191 48.2697 13.5564 47.7586 13.6128 47.0468C13.6665 46.3877 13.688 45.6992 13.573 45.051C13.2544 43.3176 12.8718 41.6015 12.466 39.8881C12.0102 37.9665 11.7436 36.0458 12.0763 34.0811C12.3659 32.3741 13.1044 30.9271 14.4578 29.8202C14.5565 29.7415 14.6465 29.6687 14.7453 29.5901C14.8063 29.5494 14.8644 29.5233 14.9749 29.4623C15.0601 29.7997 15.1278 30.1106 15.2042 30.4158C15.6586 28.2553 15.7927 25.9908 17.5929 24.3439C20.233 25.8249 21.6966 28.1294 22.2859 31.0686C22.816 27.7129 20.8169 25.3969 18.8641 22.9992C19.3523 22.7114 19.8143 22.4412 20.2764 22.1709C20.6687 21.9471 21.061 21.7234 21.4561 21.485C22.3453 20.9678 22.3715 20.9503 22.9731 21.8206C23.5368 22.6527 24.0308 23.5313 24.545 24.3836C24.6415 24.5482 24.7292 24.7186 24.875 24.8629C24.7781 23.3122 24.1461 21.9406 23.3744 20.5479C24.2579 20.0599 25.1181 19.5747 26.0016 19.1248C26.1207 19.058 26.3626 19.1763 26.5112 19.2679C28.1929 20.3076 29.1774 21.889 29.86 23.6974C30.065 24.2347 30.2439 24.7894 30.4809 25.318C30.4771 22.5986 29.1097 20.3824 27.7101 18.0987C28.7124 17.4296 29.6886 16.7779 30.7258 16.0855C31.709 17.1335 32.2915 18.4873 32.9292 19.8296C32.9906 18.7837 32.7089 17.827 32.2033 16.9308C32.0249 16.6047 31.8379 16.2843 31.6247 15.9815C31.3648 15.608 31.3698 15.274 31.692 14.9444C32.3422 14.2941 32.9808 13.6262 33.631 12.9759C36.2164 14.6588 37.7644 16.9579 38.345 19.9409C38.4867 18.3709 38.0727 16.892 37.5046 15.465C36.9394 14.0235 36.0197 12.8058 34.8646 11.669C36.1827 10.4711 37.4545 9.31683 38.7611 8.13931C39.9663 9.52247 40.9591 10.8694 41.4346 12.5362C41.3079 10.7129 40.716 9.06019 39.5569 7.51901C40.176 7.2202 40.7194 6.92101 41.2863 6.6952C41.4084 6.65184 41.6328 6.78187 41.7873 6.88226C42.4664 7.31926 43.1916 7.56016 44.018 7.5173C43.0659 7.31339 42.5317 6.63973 42.1107 5.85233C41.8096 5.30288 42.0096 4.97858 42.6031 4.92579C43.5923 4.82512 44.5726 4.69216 45.55 4.53575C46.222 4.4306 46.8703 4.21398 47.5423 4.10883C48.5575 3.9526 49.4893 4.18278 50.4304 4.63571C51.1354 4.97907 51.9622 5.08859 52.7511 5.23602C53.2315 5.33507 53.6749 5.73869 53.6935 6.22229C53.7031 6.55934 53.7214 6.89056 53.7629 7.21897C53.8845 8.14264 53.6041 8.9149 52.9744 9.61513C52.916 9.52693 52.8664 9.47101 52.8342 9.40345C52.5473 8.70462 52.5531 8.71344 51.8318 8.87696C51.1484 9.04067 50.4913 9.26311 50.0213 9.84397C49.4788 10.5241 49.4197 11.3267 49.9013 11.921C50.2895 12.4123 51.3608 12.5494 51.9972 12.2008C52.1164 12.134 52.2355 12.0672 52.3546 12.0004C52.6736 12.7287 52.5644 13.2849 51.9923 13.7686C51.5393 14.1473 51.0425 14.479 50.5255 14.875C49.931 14.5087 49.2985 14.1042 48.6487 13.7494C47.9843 13.3916 47.294 13.1274 46.4187 13.381C46.7567 13.5497 47.0102 13.6857 47.3598 13.872C45.9179 14.4657 44.9483 15.3929 44.4105 16.8203C44.2259 16.2949 44.0471 15.7782 43.8273 15.1618C43.588 18.387 46.0751 22.7302 50.9647 24.2104C50.7379 24.2855 50.5606 24.3403 50.3803 24.4098C50.3863 24.4567 50.3835 24.5094 50.3894 24.5564C50.596 24.5456 50.7968 24.5642 50.9946 24.5212C51.6752 24.3721 52.347 24.1908 53.0334 24.0506C53.6965 23.9131 54.2964 24.0977 54.9203 24.5462C54.04 25.1338 53.2295 25.6749 52.4276 26.2102C51.7419 26.6552 51.0621 27.1091 50.3648 27.5365C50.2282 27.6149 49.9955 27.6431 49.8643 27.578C47.114 26.2342 44.1967 25.6632 41.1731 25.6338C40.1895 25.629 39.313 25.3874 38.5113 24.8033C38.2985 24.6528 38.0509 24.5637 37.754 24.5329C38.0837 24.8979 38.4048 25.2687 38.7958 25.7072C35.1334 26.2315 31.8074 27.4724 28.751 29.5001C28.3623 28.8183 27.997 28.1718 27.6374 27.5342C27.6055 27.5428 27.5822 27.5456 27.5502 27.5543C27.6031 27.7479 27.6385 27.9532 27.7146 28.1441C28.0895 29.1276 28.0134 30.0943 27.7044 31.0891C26.9971 33.3421 25.5201 35.0404 23.9382 36.6942C23.0616 37.6101 22.2784 38.629 21.5068 39.6274C20.918 40.3894 20.6117 41.2934 20.5938 42.272C20.5942 42.4244 20.548 42.5824 20.5165 42.7815C20.3591 42.6958 20.228 42.6307 20.0648 42.5361C20.0796 42.6153 20.0768 42.668 20.0943 42.6945C20.8536 43.7649 21.7894 44.4756 23.1944 44.2246C23.7121 44.1334 24.2041 44.2119 24.6216 44.7473C24.4298 44.8753 24.2468 44.9975 24.0725 45.1139C22.7216 46.0157 21.3648 46.9087 20.0342 47.8224C19.7292 48.026 19.5458 47.9959 19.2601 47.7923C18.2514 47.0665 17.6262 46.0466 17.0532 44.9918C16.8427 44.5981 16.7861 44.0762 16.7937 43.6132C16.8016 42.107 16.8939 40.5954 16.896 39.0804C16.903 38.3889 16.7587 37.6966 16.6901 37.0047C16.6319 37.0308 16.5795 37.0276 16.5184 37.0302ZM47.7787 5.56638C47.7702 5.64839 47.7704 5.72458 47.7619 5.80659C48.2132 5.93773 48.6618 6.1216 49.1247 6.19418C49.2936 6.22138 49.5024 5.96745 49.6942 5.83945C49.5251 5.69797 49.3585 5.42756 49.1926 5.42382C48.7183 5.40979 48.2442 5.51004 47.7787 5.56638Z" fill="white"/>
<path d="M29.9701 36.1052C29.8944 36.1048 29.7226 36.0923 29.4578 36.091C30.2219 36.7515 31.034 36.7818 31.8459 36.6977C32.8119 36.5997 33.772 36.4167 34.738 36.3187C35.3084 36.2686 35.8588 36.3973 36.2182 36.9972C36.0933 37.0934 35.9829 37.1926 35.8609 37.2741C34.4137 38.2406 32.9724 39.216 31.5049 40.1707C31.3044 40.3046 30.9872 40.3383 30.7456 40.2961C30.0205 40.1695 29.3129 39.9931 28.5965 39.8225C27.7577 39.6191 27.2444 39.1475 27.1752 38.2265C27.1541 37.9097 26.9816 37.5922 26.8179 37.307C26.4935 36.76 26.1256 36.2422 25.7575 35.6862C27.1079 34.4407 27.6773 32.775 28.3021 31.136C28.5769 30.4306 29.0182 29.9577 29.7218 29.6532C30.2967 30.3128 30.7757 30.9983 30.5655 31.9532C30.4762 32.331 30.381 32.7 30.3267 33.0926C30.2039 34.0655 30.0927 35.0561 29.9701 36.1052Z" fill="white"/>
<path d="M34.4422 27.3035C36.2081 26.9513 37.8315 26.6306 39.5102 26.2985C39.7646 28.0122 39.2798 29.7488 40.0463 31.3623C39.7845 31.4608 39.5489 31.5418 39.3105 31.6374C39.3136 31.699 39.3253 31.7547 39.3284 31.8163C39.7009 31.8093 40.0881 31.8434 40.4518 31.766C41.0453 31.6369 41.6065 31.4021 42.197 31.2495C42.866 31.0826 43.3848 31.3725 43.8606 31.9202C43.2939 32.2987 42.7447 32.6655 42.2041 33.0265C41.219 33.6845 40.2455 34.3601 39.2428 34.9917C39.0626 35.0993 38.7483 35.1183 38.5415 35.0528C37.7114 34.8055 37.151 34.187 36.8378 33.4289C36.0093 31.4368 35.2564 29.407 34.4422 27.3035Z" fill="white"/>
</svg>
