<svg width="59" height="45" viewBox="0 0 59 45" fill="none" xmlns="http://www.w3.org/2000/svg">
<path d="M20.28 19.56C22.52 20.6 24.24 22.16 25.44 24.24C26.72 26.24 27.36 28.6 27.36 31.32C27.36 35.32 26.08 38.56 23.52 41.04C20.96 43.52 17.68 44.76 13.68 44.76C9.68 44.76 6.4 43.52 3.84 41.04C1.28 38.56 0 35.32 0 31.32C0 29.48 0.239999 27.64 0.719999 25.8C1.2 23.96 2.28 21.24 3.96 17.64L11.64 0H25.92L20.28 19.56ZM51.72 19.56C53.96 20.6 55.68 22.16 56.88 24.24C58.16 26.24 58.8 28.6 58.8 31.32C58.8 35.32 57.52 38.56 54.96 41.04C52.4 43.52 49.12 44.76 45.12 44.76C41.12 44.76 37.84 43.52 35.28 41.04C32.72 38.56 31.44 35.32 31.44 31.32C31.44 29.48 31.68 27.64 32.16 25.8C32.64 23.96 33.72 21.24 35.4 17.64L43.08 0H57.36L51.72 19.56Z" fill="#00A092"/>
</svg>
